<svg id="fc45ccf7-555f-4bfb-9b15-051762e5acef" data-name="Layer 3" xmlns="http://www.w3.org/2000/svg" viewBox="0 0 176.42 298.19"><path d="M151.53,148.62c-.77,1-1.58,1.87-2.42,2.76C149.88,150.42,150.69,149.51,151.53,148.62Z" transform="translate(-62.11 -0.9)"/><path d="M151.53,148.62c-.77,1-1.58,1.87-2.42,2.76C149.88,150.42,150.69,149.51,151.53,148.62Z" transform="translate(-62.11 -0.9)"/><path d="M150.4,149.41c0,1-.05,2-.15,3l.09-4.84C150.38,148.17,150.4,148.79,150.4,149.41Z" transform="translate(-62.11 -0.9)"/><line x1="88.26" y1="149.19" x2="88.16" y2="149"/><path d="M151.56,151.41c-.86-.91-1.68-1.85-2.47-2.82C150,149.49,150.77,150.43,151.56,151.41Z" transform="translate(-62.11 -0.9)"/><path d="M151.56,151.41c-.86-.91-1.68-1.85-2.47-2.82C150,149.49,150.77,150.43,151.56,151.41Z" transform="translate(-62.11 -0.9)"/><path d="M150.4,152.51a28.61,28.61,0,0,1-.16-3.08c0-.65,0-1.3.07-1.94Z" transform="translate(-62.11 -0.9)"/><line x1="88.26" y1="149" x2="88.16" y2="149.19"/><path d="M238.53,180.65a48,48,0,0,1-10.7,30.29l-.07.08c-.84.88-1.65,1.8-2.42,2.75l0,0a47.94,47.94,0,0,0-10.77,30.36l-.19,10.65v0l-.09,4.84v.06a29.74,29.74,0,0,1-28.08,26.62h0l-20,1.89a7.09,7.09,0,0,0-5.6,2.75l-4.77,5.5-.06.07a7.06,7.06,0,0,1-10.91-.12l0,0-4.66-5.36,0-.05a7.06,7.06,0,0,0-5.6-2.75l-20-1.89h0a29.73,29.73,0,0,1-28.08-26.62l-.09-5-.19-10.57A47.93,47.93,0,0,0,75.4,213.88s0,0-.05,0c-.79-1-1.61-1.91-2.47-2.82a48.19,48.19,0,0,1-5.82-51.64l.1-.2,1-1.84L150.32.9l82.13,156.3,1.13,2.17A47.89,47.89,0,0,1,238.53,180.65Z" transform="translate(-62.11 -0.9)"/></svg>