<svg id="b501a324-b20f-4fd0-b47c-67515f930802" data-name="Layer 1" xmlns="http://www.w3.org/2000/svg" viewBox="0 0 411.13 70.61"><defs><style>.aff0e3f9-f221-4fb3-9986-9884dd21814c{fill:#002a3f;}</style></defs><path class="aff0e3f9-f221-4fb3-9986-9884dd21814c" d="M610.5,389.41c-12.78,0-22.76-4.27-32.41-8.4s-18.68-8-30.44-8-20.84,3.88-30.45,8-19.62,8.4-32.41,8.4S462,385.14,452.38,381s-18.68-8-30.45-8a52.49,52.49,0,0,0-5.84.32c-9.06,1-16.64,4.27-24.6,7.68-9.65,4.13-19.63,8.4-32.41,8.4s-22.76-4.27-32.41-8.4-18.69-8-30.45-8-20.83,3.88-30.44,8-19.63,8.4-32.41,8.4a59.56,59.56,0,0,1-17-2.54l1.4-4.8a54.83,54.83,0,0,0,15.6,2.34c11.76,0,20.83-3.89,30.44-8s19.63-8.4,32.41-8.4,22.77,4.27,32.41,8.4,18.69,8,30.45,8,20.83-3.89,30.44-8,19.63-8.4,32.41-8.4,22.77,4.27,32.42,8.4,18.68,8,30.44,8,20.84-3.89,30.44-8,19.63-8.4,32.42-8.4,22.76,4.27,32.41,8.4,18.68,8,30.44,8a54.71,54.71,0,0,0,15.59-2.34l1.41,4.8A59.56,59.56,0,0,1,610.5,389.41Z" transform="translate(-216.37 -318.8)"/><path class="aff0e3f9-f221-4fb3-9986-9884dd21814c" d="M610.5,364.8c-12.78,0-22.76-4.27-32.41-8.4s-18.68-8-30.44-8-20.84,3.89-30.45,8-19.62,8.4-32.41,8.4-22.76-4.27-32.41-8.4-18.68-8-30.45-8-20.83,3.89-30.44,8-19.63,8.4-32.41,8.4-22.76-4.27-32.41-8.4-18.69-8-30.45-8-20.83,3.89-30.44,8-19.63,8.4-32.41,8.4a59.54,59.54,0,0,1-17-2.53l1.4-4.8a54.81,54.81,0,0,0,15.6,2.33c11.76,0,20.83-3.88,30.44-8s19.63-8.41,32.41-8.41,22.77,4.27,32.41,8.41,18.69,8,30.45,8,20.83-3.88,30.44-8,19.63-8.41,32.41-8.41,22.77,4.27,32.42,8.41,18.68,8,30.44,8,20.84-3.88,30.44-8,19.63-8.41,32.42-8.41,22.76,4.27,32.41,8.41,18.68,8,30.44,8a54.69,54.69,0,0,0,15.59-2.33l1.41,4.8A59.54,59.54,0,0,1,610.5,364.8Z" transform="translate(-216.37 -318.8)"/><path class="aff0e3f9-f221-4fb3-9986-9884dd21814c" d="M610.5,340.2c-12.78,0-22.76-4.27-32.41-8.4s-18.68-8-30.44-8-20.84,3.89-30.45,8-19.62,8.4-32.41,8.4-22.76-4.27-32.41-8.4-18.68-8-30.45-8-20.83,3.89-30.44,8-19.63,8.4-32.41,8.4-22.76-4.27-32.41-8.4-18.69-8-30.45-8-20.83,3.89-30.44,8-19.63,8.4-32.41,8.4a59.89,59.89,0,0,1-17-2.53l1.4-4.8a54.81,54.81,0,0,0,15.6,2.33c11.76,0,20.83-3.88,30.44-8s19.63-8.4,32.41-8.4,22.77,4.27,32.41,8.4,18.69,8,30.45,8,20.83-3.88,30.44-8,19.63-8.4,32.41-8.4,22.77,4.27,32.42,8.4,18.68,8,30.44,8,20.84-3.88,30.44-8,19.63-8.4,32.42-8.4,22.76,4.27,32.41,8.4,18.68,8,30.44,8a54.69,54.69,0,0,0,15.59-2.33l1.41,4.8A59.89,59.89,0,0,1,610.5,340.2Z" transform="translate(-216.37 -318.8)"/></svg>