<svg id="bfd5553d-c5ad-46e2-a597-010d3c9badab" data-name="Layer 1" xmlns="http://www.w3.org/2000/svg" viewBox="0 0 630.8 435.14"><defs><style>.a81c1b2b-3b19-427e-8296-436007ed146f{fill:none;stroke:#000;stroke-miterlimit:10;}</style></defs><path class="a81c1b2b-3b19-427e-8296-436007ed146f" d="M567.65,452.4c-19.68-11.11-45.49-10.33-64.47,1.94a70,70,0,0,1,28.33-35.07c1.71-1.09,3.48-2.09,5.28-3q-2.61,1.53-5.28,3c-2.36,1.3-4.76,2.56-7.18,3.78" transform="translate(-375.04 -180.27)"/><path class="a81c1b2b-3b19-427e-8296-436007ed146f" d="M482.89,436.76l-.34.05a96.83,96.83,0,0,1-25.79.3A77.15,77.15,0,0,1,426.2,426.8c-16.64-10.09-28.88-28.12-29.6-47.57-.3-8,1.26-16.2-1-23.88s-10.48-14.57-17.87-11.5A35.09,35.09,0,0,1,406.39,336a23,23,0,0,1-1.11-19.32,57,57,0,0,1,18.08,34.39c1.25,9.38.17,19.21,3.46,28.08,6.08,16.45,26,24.47,43.35,22.15s32.59-12.61,46.31-23.52,27-22.93,43.14-29.79c13.21-5.61,27.57-7.38,42-6.53a142.45,142.45,0,0,1,32.49,5.95l1.34.4c9.13,2.81,19.16,7.44,21.92,16.6" transform="translate(-375.04 -180.27)"/><path class="a81c1b2b-3b19-427e-8296-436007ed146f" d="M627.42,352.34c17-14.19,40-19.18,62.14-20.1,8.92-.37,18.42,0,25.88,4.91,10.68,7,14,21,15.72,33.63,1.34,10,2.21,20.25-.34,30-2.81,10.69-9.66,20.06-18.22,27.05s-18.78,11.73-29.31,15.09c-13.13,4.19-27.37,6.31-40.7,2.77S617.11,432,614,418.61" transform="translate(-375.04 -180.27)"/><path class="a81c1b2b-3b19-427e-8296-436007ed146f" d="M524.33,423.05a253.46,253.46,0,0,1-49.25,25.69c-8.81,3.43-17.92,6.38-27.34,7.09s-19.27-1-27.12-6.27a145.55,145.55,0,0,0,62.27-12.8C497.35,434.63,511.22,429.6,524.33,423.05Z" transform="translate(-375.04 -180.27)"/><path class="a81c1b2b-3b19-427e-8296-436007ed146f" d="M533.18,416.84q-4.35,3.2-8.85,6.21" transform="translate(-375.04 -180.27)"/><path class="a81c1b2b-3b19-427e-8296-436007ed146f" d="M523.83,409.27a144.26,144.26,0,0,1-40.94,27.49" transform="translate(-375.04 -180.27)"/><path class="a81c1b2b-3b19-427e-8296-436007ed146f" d="M437.75,433.07a94.09,94.09,0,0,1-25.25,3.42,54.94,54.94,0,0,0,44.8.39" transform="translate(-375.04 -180.27)"/><path class="a81c1b2b-3b19-427e-8296-436007ed146f" d="M567.21,450.67c1.91,5.7,4.19,11.88,9.36,14.94,3.64,2.16,8.08,2.35,12.32,2.43,5,.1,10.06.11,14.64-1.78s8.26-5.59,12.52-8.19,10-4.05,14.12-1.24" transform="translate(-375.04 -180.27)"/><path class="a81c1b2b-3b19-427e-8296-436007ed146f" d="M629.88,455.45A20.35,20.35,0,0,1,636,471" transform="translate(-375.04 -180.27)"/><path class="a81c1b2b-3b19-427e-8296-436007ed146f" d="M650.49,465.3q-41.84,16.44-82.72,35.19c-3.49,1.6-7.14,3.35-9.32,6.51a21.6,21.6,0,0,0-2.7,6.79l-12.44,45.88c-.95,3.5-1.85,7.44,0,10.56a13.8,13.8,0,0,0,3.25,3.4l26.1,21.62a95.54,95.54,0,0,0,24.89-50.62c.71-4.5,1.53-9.76,5.53-12,2-1.13,4.5-1.15,6.83-1.2a178.66,178.66,0,0,0,115.75-45.9" transform="translate(-375.04 -180.27)"/><path class="a81c1b2b-3b19-427e-8296-436007ed146f" d="M544.05,558.13a13.85,13.85,0,0,1,5.76,19.73" transform="translate(-375.04 -180.27)"/><path class="a81c1b2b-3b19-427e-8296-436007ed146f" d="M553.83,578.05a22.18,22.18,0,0,1,7.64-2.47c1.23-.15,2.66-.13,3.47.81a3.64,3.64,0,0,1,.68,2.35,16.28,16.28,0,0,1-2.41,9" transform="translate(-375.04 -180.27)"/><path class="a81c1b2b-3b19-427e-8296-436007ed146f" d="M646,526.69a387.11,387.11,0,0,0,1.47,45.18,320.75,320.75,0,0,1,94.69,10.79c2.19.58,5,1,6.32-.81a5.76,5.76,0,0,0,.82-3l3-37.77a6.13,6.13,0,0,0-.25-2.89c-.87-2-3.47-2.43-5.65-2.59l-42.92-3c-3.84-.27-8.15-.77-10.52-3.8-3.37-4.3-.8-11-3.52-15.76" transform="translate(-375.04 -180.27)"/><path class="a81c1b2b-3b19-427e-8296-436007ed146f" d="M732.76,580.7c-.16-2.3,1.54-4.42,3.62-5.42a14.25,14.25,0,0,1,6.77-1,31.81,31.81,0,0,0,6.9-.07" transform="translate(-375.04 -180.27)"/><path class="a81c1b2b-3b19-427e-8296-436007ed146f" d="M749,568.76c-2.82.77-6,.82-8.46-.8a6.94,6.94,0,1,1,8.6-10.82" transform="translate(-375.04 -180.27)"/><path class="a81c1b2b-3b19-427e-8296-436007ed146f" d="M685.87,513.5c9.56,8,21.34,13,33.41,16.07s24.53,4.36,36.92,5.62c11.75,1.2,23.75,2.38,35.24-.35,8.9-2.12,17.08-6.5,25.13-10.86q13.84-7.5,27.64-15.09" transform="translate(-375.04 -180.27)"/><path class="a81c1b2b-3b19-427e-8296-436007ed146f" d="M831.67,469.8l17.27,49.46c1.59,4.54,3.31,9.29,6.92,12.47,4,3.49,9.48,4.47,14.69,5.31l65.89,10.63" transform="translate(-375.04 -180.27)"/><path class="a81c1b2b-3b19-427e-8296-436007ed146f" d="M888.33,450.89c1.95,3.83,4.42,11.6,6.5,18.05,1,3.06,1.88,5.82,2.59,7.72,2.22,5.93,1,5.9,3.41,11.75,4.69,11.38,14.49,9,20.84,8.72,21.06-.91,30.17,6.42,49.42,15,2.39,1.07,5.1,2.59,5.42,5.19a7.8,7.8,0,0,1-1.06,4.14q-8.1,17.31-16.18,34.63a2,2,0,0,1-3.48,1l-17.07-10.74" transform="translate(-375.04 -180.27)"/><path class="a81c1b2b-3b19-427e-8296-436007ed146f" d="M935.64,546.6a33.45,33.45,0,0,1,24.15,1.64" transform="translate(-375.04 -180.27)"/><path class="a81c1b2b-3b19-427e-8296-436007ed146f" d="M964.43,543.11c-3.41-1.69-6.74-3.79-9-6.85-1.18-1.58-2.08-3.61-1.51-5.51.83-2.76,4.35-3.8,7.18-3.23s5.3,2.24,8,3.15" transform="translate(-375.04 -180.27)"/><path class="a81c1b2b-3b19-427e-8296-436007ed146f" d="M801.72,532.34c-5,3.64-10.59,8.46-10,14.62.3,3,2.11,5.7,3.76,8.27A124,124,0,0,1,815,614.7l47.42-6A163,163,0,0,0,849,564.37c-3.39-7.27-7.39-14.59-7.71-22.6a26.05,26.05,0,0,1,9.55-21" transform="translate(-375.04 -180.27)"/><path class="a81c1b2b-3b19-427e-8296-436007ed146f" d="M812.52,600.2c3.4-1,7,1.57,8.46,4.78s1.33,6.89,1.16,10.41" transform="translate(-375.04 -180.27)"/><path class="a81c1b2b-3b19-427e-8296-436007ed146f" d="M827.63,612.68c.7-2,.09-4.24-.13-6.38s.14-4.68,2-5.74a5.11,5.11,0,0,1,3.83-.23,11.28,11.28,0,0,1,8,12" transform="translate(-375.04 -180.27)"/><path class="a81c1b2b-3b19-427e-8296-436007ed146f" d="M729.35,359.82c7.94-5.43,18.06-6.32,27.67-6.53,26.14-.57,52.71,2.8,76.74,13.11s45.41,28,57.18,51.37c4.7,9.34,7.83,19.43,12.9,28.58s12.6,17.61,22.64,20.52" transform="translate(-375.04 -180.27)"/><path class="a81c1b2b-3b19-427e-8296-436007ed146f" d="M890.68,460.48a52.89,52.89,0,0,0,62.71,17.8" transform="translate(-375.04 -180.27)"/><path class="a81c1b2b-3b19-427e-8296-436007ed146f" d="M925.24,466.05c-1.88-2.78-.57-6.89,2.17-8.83s6.43-2.05,9.69-1.25,6.27,2.39,9.37,3.68a51.49,51.49,0,0,0,33.41,1.9A26.75,26.75,0,0,1,953.17,477" transform="translate(-375.04 -180.27)"/><path class="a81c1b2b-3b19-427e-8296-436007ed146f" d="M746.65,357.32c45.84-12.83,90.44-32.05,128-61.35s67.67-69.28,80.23-115.2c6.71,0,13.61,1.19,19.28,4.78s9.88,9.95,9.57,16.65-6,13.12-12.74,13c9.43-1,18.7,7.7,18.23,17.18s-10.57,17.25-19.86,15.29c9.45,1.79,18.52,7,23.63,15.1s5.64,19.37.08,27.22-17.43,10.93-25.49,5.67c8.89,2.36,18,4.81,25.5,10.11s13.22,14.14,12.19,23.28c-1.38,12.25-14.54,20.48-26.86,20.44s-23.73-6.25-34.1-12.92c6,8.55,2.72,22.12-6.58,26.92s-22.29-.37-25.75-10.24c7.66,4.8,7.89,17.68.58,23s-19.22,1.54-22.42-6.91c3.6,7.67-2.52,17.45-10.76,19.45s-17-2.35-22.43-8.87c4.34,3.35,3.17,11-1.38,14.05s-10.88,2.22-15.55-.66-8-7.44-11.17-11.93c-.29,9.81-12.36,15.7-21.91,13.44s-16.79-9.81-23.46-17" transform="translate(-375.04 -180.27)"/><path class="a81c1b2b-3b19-427e-8296-436007ed146f" d="M668.91,333.86c-16.07-7.39-29.23-19.94-40.52-33.56s-21-28.49-32.14-42.21c-5.82-7.16-12.07-14-16.88-21.92s-8.17-17-7.49-26.2a19,19,0,0,0-5,36.34c-5.09,1.83-9.93,4.74-13.23,9s-4.89,10.08-3.38,15.28c1.45,5,5.51,8.84,10.1,11.23s9.72,3.51,14.78,4.59c-5.58-.57-10.38,5.29-10,10.88s4.7,10.32,9.77,12.73,10.8,2.93,16.39,3.29c-4.5-.73-8.78,3.57-9,8.13s3,8.77,7,10.92,8.75,2.56,13.3,2.35a4.57,4.57,0,0,0,3.83,8.23" transform="translate(-375.04 -180.27)"/><path class="a81c1b2b-3b19-427e-8296-436007ed146f" d="M550.86,378.18c-3.44-2.22-4-7.75-1.12-10.68a7.63,7.63,0,0,1,10.88.54,8.06,8.06,0,0,1-1.22,11,8.53,8.53,0,0,1-11.14-.9,11.9,11.9,0,0,1-4.76,4.6,16.57,16.57,0,0,0,21-20.08l-5.31,3" transform="translate(-375.04 -180.27)"/><line class="a81c1b2b-3b19-427e-8296-436007ed146f" x1="468.2" y1="329.27" x2="469.9" y2="327.94"/></svg>